<svg width="134" height="47" viewBox="0 0 134 47" fill="none" xmlns="http://www.w3.org/2000/svg">
<rect x="0.633301" width="133.012" height="46.5543" rx="23.2771" fill="#080809"/>
<path d="M29.616 31.9192C26.4486 31.9009 23.8286 25.4352 23.8286 22.1423C23.8286 16.7635 27.8637 15.5859 29.4187 15.5859C30.1195 15.5859 30.8679 15.8611 31.5279 16.1047C31.9895 16.2746 32.4668 16.4499 32.7323 16.4499C32.8912 16.4499 33.2657 16.3007 33.5963 16.1698C34.3014 15.8891 35.1788 15.5403 36.2005 15.5403C36.2023 15.5403 36.2047 15.5403 36.2065 15.5403C36.9694 15.5403 39.2826 15.7077 40.6733 17.7962L40.999 18.2857L40.5302 18.6395C39.8604 19.1448 38.6384 20.0667 38.6384 21.8927C38.6384 24.0555 40.0224 24.8872 40.6873 25.2872C40.9808 25.4638 41.2846 25.6459 41.2846 26.0441C41.2846 26.3041 39.2095 31.8869 36.1962 31.8869C35.4588 31.8869 34.9376 31.6653 34.4779 31.4698C34.0127 31.2719 33.6115 31.1015 32.9484 31.1015C32.6123 31.1015 32.1873 31.2604 31.7373 31.429C31.1224 31.6585 30.4264 31.9192 29.6367 31.9192H29.616Z" fill="white"/>
<path d="M36.5197 10.6394C36.5982 13.4691 34.5745 15.4322 32.5532 15.309C32.2202 13.0509 34.5743 10.6394 36.5197 10.6394Z" fill="white"/>
<path d="M52.5483 17.292H53.945L52.0455 11.7055H50.4175L48.5181 17.292H49.9147L50.194 16.4141H52.269L52.5483 17.292ZM50.5771 15.217L51.2315 13.166L51.8859 15.217H50.5771Z" fill="white"/>
<path d="M56.7714 13.3016L55.9414 15.8315L55.1114 13.3016H53.7866L55.263 17.292H56.6198L58.0962 13.3016H56.7714Z" fill="white"/>
<path d="M61.2766 13.3016V13.6767C61.0132 13.3735 60.6222 13.1899 60.0874 13.1899C59.042 13.1899 58.18 14.1077 58.18 15.2968C58.18 16.4859 59.042 17.4037 60.0874 17.4037C60.6222 17.4037 61.0132 17.2202 61.2766 16.9169V17.292H62.4737V13.3016H61.2766ZM60.3269 16.2705C59.7762 16.2705 59.3772 15.8954 59.3772 15.2968C59.3772 14.6983 59.7762 14.3232 60.3269 14.3232C60.8775 14.3232 61.2766 14.6983 61.2766 15.2968C61.2766 15.8954 60.8775 16.2705 60.3269 16.2705Z" fill="white"/>
<path d="M63.3519 17.292H64.549V11.4661H63.3519V17.292Z" fill="white"/>
<path d="M66.0236 12.9505C66.4147 12.9505 66.7419 12.6233 66.7419 12.2322C66.7419 11.8412 66.4147 11.5139 66.0236 11.5139C65.6326 11.5139 65.3053 11.8412 65.3053 12.2322C65.3053 12.6233 65.6326 12.9505 66.0236 12.9505ZM65.4251 17.292H66.6222V13.3016H65.4251V17.292Z" fill="white"/>
<path d="M69.8844 13.1899C69.3497 13.1899 68.9586 13.3735 68.6953 13.6767V11.7055H67.4982V17.292H68.6953V16.9169C68.9586 17.2202 69.3497 17.4037 69.8844 17.4037C70.9299 17.4037 71.7918 16.4859 71.7918 15.2968C71.7918 14.1077 70.9299 13.1899 69.8844 13.1899ZM69.645 16.2705C69.0943 16.2705 68.6953 15.8954 68.6953 15.2968C68.6953 14.6983 69.0943 14.3232 69.645 14.3232C70.1957 14.3232 70.5947 14.6983 70.5947 15.2968C70.5947 15.8954 70.1957 16.2705 69.645 16.2705Z" fill="white"/>
<path d="M72.4705 17.292H73.6676V11.4661H72.4705V17.292Z" fill="white"/>
<path d="M75.6131 15.7757H78.4462C78.4782 15.624 78.4941 15.4644 78.4941 15.2968C78.4941 14.0917 77.6322 13.1899 76.467 13.1899C75.2061 13.1899 74.3441 14.1077 74.3441 15.2968C74.3441 16.4859 75.1901 17.4037 76.5548 17.4037C77.313 17.4037 77.9035 17.1244 78.2946 16.5817L77.3369 16.031C77.1773 16.2066 76.898 16.3343 76.5708 16.3343C76.1318 16.3343 75.7647 16.1907 75.6131 15.7757ZM75.5891 14.8818C75.7009 14.4748 76.0041 14.2513 76.459 14.2513C76.8182 14.2513 77.1773 14.4189 77.305 14.8818H75.5891Z" fill="white"/>
<path d="M83.0837 17.4037C84.2568 17.4037 85.1986 16.4859 85.1986 15.2968C85.1986 14.1077 84.2568 13.1899 83.0837 13.1899C81.9105 13.1899 80.9688 14.1077 80.9688 15.2968C80.9688 16.4859 81.9105 17.4037 83.0837 17.4037ZM83.0837 16.2385C82.5649 16.2385 82.1659 15.8634 82.1659 15.2968C82.1659 14.7302 82.5649 14.3551 83.0837 14.3551C83.6024 14.3551 84.0014 14.7302 84.0014 15.2968C84.0014 15.8634 83.6024 16.2385 83.0837 16.2385Z" fill="white"/>
<path d="M88.214 13.1899C87.6873 13.1899 87.2883 13.3814 87.0728 13.6767V13.3016H85.8757V17.292H87.0728V15.1133C87.0728 14.5466 87.376 14.2912 87.815 14.2912C88.1981 14.2912 88.5093 14.5227 88.5093 15.0175V17.292H89.7064V14.8419C89.7064 13.7645 89.0201 13.1899 88.214 13.1899Z" fill="white"/>
<path d="M94.862 14.4509V13.3016H94.04V12.1843L92.8429 12.5435V13.3016H92.2044V14.4509H92.8429V15.8634C92.8429 16.9807 93.2978 17.4516 94.862 17.292V16.2066C94.3353 16.2385 94.04 16.2066 94.04 15.8634V14.4509H94.862Z" fill="white"/>
<path d="M97.8782 13.1899C97.3515 13.1899 96.9524 13.3814 96.7369 13.6767V11.7055H95.5398V17.292H96.7369V15.1133C96.7369 14.5466 97.0402 14.2912 97.4791 14.2912C97.8622 14.2912 98.1735 14.5227 98.1735 15.0175V17.292H99.3706V14.8419C99.3706 13.7645 98.6842 13.1899 97.8782 13.1899Z" fill="white"/>
<path d="M101.262 15.7757H104.095C104.127 15.624 104.143 15.4644 104.143 15.2968C104.143 14.0917 103.281 13.1899 102.116 13.1899C100.855 13.1899 99.9931 14.1077 99.9931 15.2968C99.9931 16.4859 100.839 17.4037 102.204 17.4037C102.962 17.4037 103.553 17.1244 103.944 16.5817L102.986 16.031C102.826 16.2066 102.547 16.3343 102.22 16.3343C101.781 16.3343 101.414 16.1907 101.262 15.7757ZM101.238 14.8818C101.35 14.4748 101.653 14.2513 102.108 14.2513C102.467 14.2513 102.826 14.4189 102.954 14.8818H101.238Z" fill="white"/>
<path d="M55.2352 31.9233H57.5629L54.3972 22.6125H51.6838L48.5181 31.9233H50.8458L51.3113 30.4602H54.7696L55.2352 31.9233ZM51.9498 28.465L53.0405 25.0466L54.1312 28.465H51.9498Z" fill="white"/>
<path d="M62.2674 25.0865C61.3762 25.0865 60.7244 25.3924 60.2855 25.8979V25.2727H58.2903V34.5836H60.2855V31.2982C60.7244 31.8036 61.3762 32.1096 62.2674 32.1096C64.0098 32.1096 65.4464 30.5799 65.4464 28.598C65.4464 26.6161 64.0098 25.0865 62.2674 25.0865ZM61.8683 30.2208C60.9505 30.2208 60.2855 29.5956 60.2855 28.598C60.2855 27.6004 60.9505 26.9753 61.8683 26.9753C62.7861 26.9753 63.4512 27.6004 63.4512 28.598C63.4512 29.5956 62.7861 30.2208 61.8683 30.2208Z" fill="white"/>
<path d="M70.5546 25.0865C69.6635 25.0865 69.0117 25.3924 68.5728 25.8979V25.2727H66.5776V34.5836H68.5728V31.2982C69.0117 31.8036 69.6635 32.1096 70.5546 32.1096C72.2971 32.1096 73.7336 30.5799 73.7336 28.598C73.7336 26.6161 72.2971 25.0865 70.5546 25.0865ZM70.1556 30.2208C69.2378 30.2208 68.5728 29.5956 68.5728 28.598C68.5728 27.6004 69.2378 26.9753 70.1556 26.9753C71.0734 26.9753 71.7385 27.6004 71.7385 28.598C71.7385 29.5956 71.0734 30.2208 70.1556 30.2208Z" fill="white"/>
<path d="M74.8649 31.9233H76.86V22.2134H74.8649V31.9233Z" fill="white"/>
<path d="M80.1024 29.3961H84.8244C84.8776 29.1434 84.9042 28.8774 84.9042 28.598C84.9042 26.5895 83.4676 25.0865 81.5257 25.0865C79.4241 25.0865 77.9875 26.6161 77.9875 28.598C77.9875 30.5799 79.3975 32.1096 81.672 32.1096C82.9356 32.1096 83.9199 31.644 84.5716 30.7395L82.9755 29.8217C82.7095 30.1144 82.2439 30.3272 81.6986 30.3272C80.967 30.3272 80.3551 30.0878 80.1024 29.3961ZM80.0625 27.9064C80.2487 27.228 80.7542 26.8556 81.5124 26.8556C82.1109 26.8556 82.7095 27.1349 82.9223 27.9064H80.0625Z" fill="white"/>
<path d="M92.6864 32.1096C94.7082 32.1096 96.1447 31.0455 96.1447 29.2498C96.1447 27.2812 94.5619 26.7891 93.152 26.3634C91.7021 25.9245 91.476 25.6319 91.476 25.2062C91.476 24.8338 91.8085 24.5013 92.4736 24.5013C93.3249 24.5013 93.7638 24.9136 94.083 25.5787L95.8787 24.5279C95.2003 23.1578 94.0032 22.4263 92.4736 22.4263C90.8641 22.4263 89.3478 23.4638 89.3478 25.2594C89.3478 27.0418 90.7045 27.7068 92.0879 28.0926C93.4845 28.4783 94.0165 28.7044 94.0165 29.2764C94.0165 29.6355 93.7638 30.0346 92.7529 30.0346C91.7021 30.0346 91.1302 29.5158 90.7976 28.7443L88.9621 29.8084C89.4808 31.1785 90.7311 32.1096 92.6864 32.1096Z" fill="white"/>
<path d="M100.844 27.1881V25.2727H99.4742V23.4106L97.479 24.0091V25.2727H96.4149V27.1881H97.479V29.5424C97.479 31.4046 98.2372 32.1894 100.844 31.9233V30.1144C99.9663 30.1676 99.4742 30.1144 99.4742 29.5424V27.1881H100.844Z" fill="white"/>
<path d="M105.036 32.1096C106.992 32.1096 108.561 30.5799 108.561 28.598C108.561 26.6161 106.992 25.0865 105.036 25.0865C103.081 25.0865 101.511 26.6161 101.511 28.598C101.511 30.5799 103.081 32.1096 105.036 32.1096ZM105.036 30.1676C104.172 30.1676 103.507 29.5424 103.507 28.598C103.507 27.6536 104.172 27.0285 105.036 27.0285C105.901 27.0285 106.566 27.6536 106.566 28.598C106.566 29.5424 105.901 30.1676 105.036 30.1676Z" fill="white"/>
<path d="M111.685 26.4565V25.2727H109.69V31.9233H111.685V28.9173C111.685 27.6004 112.855 27.2679 113.68 27.4009V25.1397C112.842 25.1397 111.951 25.5654 111.685 26.4565Z" fill="white"/>
<path d="M116.2 29.3961H120.922C120.975 29.1434 121.002 28.8774 121.002 28.598C121.002 26.5895 119.565 25.0865 117.623 25.0865C115.522 25.0865 114.085 26.6161 114.085 28.598C114.085 30.5799 115.495 32.1096 117.77 32.1096C119.033 32.1096 120.018 31.644 120.669 30.7395L119.073 29.8217C118.807 30.1144 118.342 30.3272 117.796 30.3272C117.065 30.3272 116.453 30.0878 116.2 29.3961ZM116.16 27.9064C116.346 27.228 116.852 26.8556 117.61 26.8556C118.209 26.8556 118.807 27.1349 119.02 27.9064H116.16Z" fill="white"/>
</svg>
