<svg width="14" height="19" viewBox="0 0 14 19" fill="none" xmlns="http://www.w3.org/2000/svg">
<path d="M1.616 18.5C1.15533 18.5 0.771 18.346 0.463 18.038C0.155 17.73 0.000666667 17.3457 0 16.885L0 2.115C0 1.655 0.154333 1.271 0.463 0.963C0.771667 0.655 1.156 0.500667 1.616 0.5H12.385C12.845 0.5 13.2293 0.654333 13.538 0.963C13.8467 1.27167 14.0007 1.656 14 2.116V16.885C14 17.345 13.846 17.7293 13.538 18.038C13.23 18.3467 12.8453 18.5007 12.384 18.5H1.616ZM1.616 17.5H12.385C12.5383 17.5 12.6793 17.436 12.808 17.308C12.9367 17.18 13.0007 17.0387 13 16.884V2.116C13 1.962 12.936 1.82067 12.808 1.692C12.68 1.56333 12.5387 1.49933 12.384 1.5H11V7.616L9 6.423L7 7.616V1.5H1.616C1.462 1.5 1.32067 1.564 1.192 1.692C1.06333 1.82 0.999333 1.961 1 2.115V16.885C1 17.0383 1.064 17.1793 1.192 17.308C1.32 17.4367 1.461 17.5007 1.615 17.5" fill="#1B93B0"/>
</svg>
