<svg width="143" height="47" viewBox="0 0 143 47" fill="none" xmlns="http://www.w3.org/2000/svg">
<rect width="142.323" height="46.5543" rx="23.2771" fill="#080809"/>
<g clip-path="url(#clip0_25_1080)">
<path d="M37.918 22.6137L24.5589 35.4776C23.9333 35.0501 23.5619 34.3389 23.5684 33.5812V11.6461C23.5619 10.8884 23.9333 10.1773 24.5589 9.74976L37.918 22.6137Z" fill="#2196F3"/>
<path d="M42.5927 18.1215L37.9182 22.6148L24.5591 9.75093C24.6094 9.71192 24.6618 9.67562 24.7161 9.64222C25.4221 9.21429 26.304 9.20047 27.0232 9.60598L42.5927 18.1215Z" fill="#4CAF50"/>
<path d="M48.2574 22.6161C48.2661 23.4715 47.8013 24.2615 47.0495 24.6695L42.5925 27.1094L37.918 22.6161L42.5925 18.1228L47.0495 20.5627C47.8013 20.9707 48.2661 21.7608 48.2574 22.6161Z" fill="#F0BB1F"/>
<path d="M42.5927 27.1082L27.0232 35.6237C26.3024 36.023 25.4239 36.0091 24.7161 35.5875C24.6618 35.5541 24.6094 35.5178 24.5591 35.4788L37.9182 22.6149L42.5927 27.1082Z" fill="#F15A2B"/>
</g>
<path d="M63.8775 15.8014H60.1425V17.2912H62.1324C61.8664 18.0041 61.2173 18.4404 60.2277 18.4404C58.7805 18.4404 57.8866 17.5146 57.8866 16.2484C57.8866 14.9395 58.823 14.0138 60.0787 14.0138C60.9193 14.0138 61.5897 14.3968 61.8983 14.8863L63.3455 14.0563C62.7176 13.0561 61.5152 12.3538 60.0893 12.3538C57.8973 12.3538 56.1841 14.0776 56.1841 16.2377C56.1841 18.3766 57.8654 20.1004 60.2064 20.1004C62.292 20.1004 63.8775 18.7171 63.8775 16.4399V15.8014Z" fill="white"/>
<path d="M66.0079 18.3127V16.9932H68.6681V15.3758H66.0079V14.1414H68.9341V12.5027H64.3053V19.9514H68.9873V18.3127H66.0079Z" fill="white"/>
<path d="M74.4171 12.5027H68.8838V14.1414H70.7992V19.9514H72.5018V14.1414H74.4171V12.5027Z" fill="white"/>
<path d="M76.7586 12.5027V19.9514H78.4611V12.5027H76.7586Z" fill="white"/>
<path d="M84.2102 12.5027H78.6769V14.1414H80.5922V19.9514H82.2948V14.1414H84.2102V12.5027Z" fill="white"/>
<path d="M90.1057 20.1004C92.2445 20.1004 93.979 18.4191 93.979 16.2271C93.979 14.035 92.2445 12.3538 90.1057 12.3538C87.9668 12.3538 86.2324 14.035 86.2324 16.2271C86.2324 18.4191 87.9668 20.1004 90.1057 20.1004ZM90.1057 18.4404C88.8926 18.4404 87.9349 17.5572 87.9349 16.2271C87.9349 14.897 88.8926 14.0138 90.1057 14.0138C91.3187 14.0138 92.2764 14.897 92.2764 16.2271C92.2764 17.5572 91.3187 18.4404 90.1057 18.4404Z" fill="white"/>
<path d="M98.5555 12.5027V16.5463L95.6825 12.5027H94.4055V19.9514H96.1081V15.9078L98.9812 19.9514H100.258V12.5027H98.5555Z" fill="white"/>
<path d="M63.8775 28.4536V28.7409C63.8775 29.6702 63.5476 30.4541 62.8879 31.0925C62.2282 31.7239 61.3591 32.0396 60.2809 32.0396C59.1458 32.0396 58.2094 31.6707 57.4716 30.9329C56.7339 30.188 56.365 29.2765 56.365 28.1982C56.365 27.1199 56.7303 26.2119 57.461 25.4741C58.1917 24.7292 59.1174 24.3568 60.2383 24.3568C60.9193 24.3568 61.5436 24.5199 62.1111 24.8463C62.6857 25.1726 63.1291 25.6089 63.4412 26.1551L62.9411 26.453C62.6928 25.9848 62.3239 25.6089 61.8344 25.3251C61.352 25.0413 60.82 24.8995 60.2383 24.8995C59.2735 24.8995 58.479 25.2187 57.8547 25.8572C57.2375 26.4885 56.929 27.2689 56.929 28.1982C56.929 29.1275 57.2411 29.9114 57.8654 30.5498C58.4896 31.1812 59.2948 31.4969 60.2809 31.4969C61.1534 31.4969 61.8593 31.2592 62.3984 30.7839C62.9376 30.3086 63.239 29.7092 63.3029 28.9856H60.1425V28.4536H63.8775Z" fill="white"/>
<path d="M71.4308 30.9223C70.6859 31.6671 69.7779 32.0396 68.7067 32.0396C67.6355 32.0396 66.7275 31.6671 65.9826 30.9223C65.2377 30.1703 64.8653 29.2623 64.8653 28.1982C64.8653 27.1341 65.2377 26.2296 65.9826 25.4847C66.7275 24.7328 67.6355 24.3568 68.7067 24.3568C69.7779 24.3568 70.6859 24.7328 71.4308 25.4847C72.1756 26.2296 72.5481 27.1341 72.5481 28.1982C72.5481 29.2623 72.1756 30.1703 71.4308 30.9223ZM66.3763 30.5392C67.0148 31.1776 67.7916 31.4969 68.7067 31.4969C69.6218 31.4969 70.395 31.1776 71.0264 30.5392C71.6649 29.8936 71.9841 29.1133 71.9841 28.1982C71.9841 27.283 71.6649 26.5063 71.0264 25.8678C70.395 25.2222 69.6218 24.8995 68.7067 24.8995C67.7916 24.8995 67.0148 25.2222 66.3763 25.8678C65.7449 26.5063 65.4293 27.283 65.4293 28.1982C65.4293 29.1133 65.7449 29.8936 66.3763 30.5392Z" fill="white"/>
<path d="M80.1181 30.9223C79.3733 31.6671 78.4652 32.0396 77.394 32.0396C76.3228 32.0396 75.4148 31.6671 74.6699 30.9223C73.9251 30.1703 73.5526 29.2623 73.5526 28.1982C73.5526 27.1341 73.9251 26.2296 74.6699 25.4847C75.4148 24.7328 76.3228 24.3568 77.394 24.3568C78.4652 24.3568 79.3733 24.7328 80.1181 25.4847C80.863 26.2296 81.2354 27.1341 81.2354 28.1982C81.2354 29.2623 80.863 30.1703 80.1181 30.9223ZM75.0637 30.5392C75.7021 31.1776 76.4789 31.4969 77.394 31.4969C78.3092 31.4969 79.0824 31.1776 79.7138 30.5392C80.3522 29.8936 80.6715 29.1133 80.6715 28.1982C80.6715 27.283 80.3522 26.5063 79.7138 25.8678C79.0824 25.2222 78.3092 24.8995 77.394 24.8995C76.4789 24.8995 75.7021 25.2222 75.0637 25.8678C74.4323 26.5063 74.1166 27.283 74.1166 28.1982C74.1166 29.1133 74.4323 29.8936 75.0637 30.5392Z" fill="white"/>
<path d="M89.7525 28.4536V28.7409C89.7525 29.6702 89.4227 30.4541 88.7629 31.0925C88.1032 31.7239 87.2342 32.0396 86.1559 32.0396C85.0208 32.0396 84.0844 31.6707 83.3467 30.9329C82.6089 30.188 82.24 29.2765 82.24 28.1982C82.24 27.1199 82.6053 26.2119 83.336 25.4741C84.0667 24.7292 84.9925 24.3568 86.1133 24.3568C86.7943 24.3568 87.4186 24.5199 87.9861 24.8463C88.5607 25.1726 89.0041 25.6089 89.3162 26.1551L88.8161 26.453C88.5678 25.9848 88.1989 25.6089 87.7095 25.3251C87.2271 25.0413 86.695 24.8995 86.1133 24.8995C85.1485 24.8995 84.354 25.2187 83.7297 25.8572C83.1126 26.4885 82.804 27.2689 82.804 28.1982C82.804 29.1275 83.1161 29.9114 83.7404 30.5498C84.3646 31.1812 85.1698 31.4969 86.1559 31.4969C87.0284 31.4969 87.7343 31.2592 88.2734 30.7839C88.8126 30.3086 89.1141 29.7092 89.1779 28.9856H86.0175V28.4536H89.7525Z" fill="white"/>
<path d="M91.7299 31.3905H95.2414V31.9225H91.1659V24.4738H91.7299V31.3905Z" fill="white"/>
<path d="M96.9777 31.3905H100.702V31.9225H96.4137V24.4738H100.649V25.0059H96.9777V27.9002H100.383V28.4323H96.9777V31.3905Z" fill="white"/>
<path d="M107.457 24.4738C108.124 24.4738 108.677 24.6937 109.117 25.1336C109.557 25.5734 109.777 26.1232 109.777 26.7829C109.777 27.4427 109.557 27.9924 109.117 28.4323C108.677 28.865 108.124 29.0814 107.457 29.0814H105.488V31.9225H104.924V24.4738H107.457ZM107.457 28.5493C107.968 28.5493 108.386 28.3826 108.713 28.0492C109.046 27.7158 109.213 27.2937 109.213 26.7829C109.213 26.2651 109.046 25.8394 108.713 25.506C108.386 25.1726 107.968 25.0059 107.457 25.0059H105.488V28.5493H107.457Z" fill="white"/>
<path d="M111.734 31.3905H115.245V31.9225H111.17V24.4738H111.734V31.3905Z" fill="white"/>
<path d="M121.637 31.9225L120.914 30.0284H117.179L116.455 31.9225H115.859L118.753 24.4738H119.349L122.233 31.9225H121.637ZM117.391 29.4964H120.711L119.051 25.1655L117.391 29.4964Z" fill="white"/>
<path d="M127.533 24.4738L124.82 28.8579V31.9225H124.256V28.8579L121.542 24.4738H122.181L124.543 28.3152L126.895 24.4738H127.533Z" fill="white"/>
<defs>
<clipPath id="clip0_25_1080">
<rect width="26.6024" height="26.6024" fill="white" transform="translate(22.6118 9.31116)"/>
</clipPath>
</defs>
</svg>
