<svg width="17" height="21" viewBox="0 0 17 21" fill="none" xmlns="http://www.w3.org/2000/svg">
<path d="M5.5 1.76172V19.7617M9.5 5.76172H11.5M9.5 9.76172H11.5M2.5 1.76172H13.5C14.0304 1.76172 14.5391 1.97243 14.9142 2.34751C15.2893 2.72258 15.5 3.23129 15.5 3.76172V15.7617C15.5 16.2922 15.2893 16.8009 14.9142 17.1759C14.5391 17.551 14.0304 17.7617 13.5 17.7617H2.5C2.23478 17.7617 1.98043 17.6564 1.79289 17.4688C1.60536 17.2813 1.5 17.0269 1.5 16.7617V2.76172C1.5 2.4965 1.60536 2.24215 1.79289 2.05461C1.98043 1.86708 2.23478 1.76172 2.5 1.76172Z" stroke="#757575" stroke-width="2" stroke-linecap="round" stroke-linejoin="round"/>
</svg>
