<svg width="10" height="12" viewBox="0 0 10 12" fill="none" xmlns="http://www.w3.org/2000/svg">
<rect width="10" height="12" fill="#F5F5F5"/>
<rect width="1440" height="1346" transform="translate(-222 -795)" fill="white"/>
<g filter="url(#filter0_d_0_1)">
<rect x="-61.75" y="-35.75" width="359.5" height="64.5" rx="9.75" fill="#F6F6F6"/>
<rect x="-61.75" y="-35.75" width="359.5" height="64.5" rx="9.75" stroke="#D0D0D0" stroke-width="0.5"/>
<mask id="path-3-outside-1_0_1" maskUnits="userSpaceOnUse" x="0" y="-0.485596" width="10" height="13" fill="black">
<rect fill="white" y="-0.485596" width="10" height="13"/>
<path d="M4.91579 0.514464C4.12143 0.67279 3.75223 1.38594 3.75223 1.94689C3.75223 2.62837 4.22179 3.20138 4.85344 3.36496V3.7254C4.44736 4.35824 3.54181 4.79075 2.68434 5.31509C1.73168 5.89764 1.00842 6.6248 1.0001 7.81663C0.994554 8.60778 1.21748 9.1931 1.46775 9.59799C1.59412 9.81492 1.91731 9.61533 1.77987 9.40524C1.56226 9.05319 1.35827 8.5412 1.36705 7.81663C1.38065 6.69285 2.11627 6.10536 2.87892 5.62608C3.64278 5.14604 4.519 4.77284 5.03655 4.09711C5.5541 4.77284 6.37939 5.09748 7.19417 5.62608C8.02484 6.16497 8.72432 6.74912 8.70605 7.81663C8.69107 8.69017 8.43337 9.47668 7.73564 10.0175H1.54981C1.24804 10.0175 1.0001 10.2672 1.0001 10.5689V11.3013C0.999734 11.4026 1.08153 11.485 1.18286 11.4854H8.88953C8.99141 11.4858 9.07411 11.4031 9.07372 11.3013V10.5689C9.07372 10.2672 8.82434 10.0175 8.52258 10.0175H8.28463C8.9377 9.29201 9.08083 8.44969 9.07301 7.81663C9.05733 6.54991 8.26473 5.86552 7.38876 5.31509C6.53823 4.78065 5.62681 4.35872 5.22038 3.72648V3.41333C5.88388 3.41264 6.46278 2.9699 6.63443 2.33239C6.7083 2.11357 6.48306 1.99139 6.35134 2.10524C6.18758 2.23942 5.98218 2.31389 5.77045 2.31411C5.26162 2.31411 4.85344 1.90459 4.85344 1.39586C4.85358 1.1842 4.92646 0.979909 5.06056 0.816141C5.16254 0.695233 5.07395 0.510589 4.91579 0.514464ZM4.5216 1.10133C4.499 1.19732 4.48617 1.29592 4.4861 1.39586C4.4861 2.10286 5.06328 2.681 5.77043 2.681C5.87078 2.68089 5.96972 2.66777 6.06606 2.64482C5.86253 2.89165 5.55774 3.04605 5.22036 3.04645C4.6102 3.04645 4.11916 2.55693 4.11915 1.94689C4.11952 1.60947 4.27448 1.30484 4.52157 1.10133H4.5216ZM1.54981 10.3844H8.52258C8.6274 10.3844 8.70677 10.4641 8.70677 10.5689V11.1185H1.36705V10.5689C1.36705 10.4641 1.445 10.3844 1.54981 10.3844Z"/>
</mask>
<path d="M4.91579 0.514464C4.12143 0.67279 3.75223 1.38594 3.75223 1.94689C3.75223 2.62837 4.22179 3.20138 4.85344 3.36496V3.7254C4.44736 4.35824 3.54181 4.79075 2.68434 5.31509C1.73168 5.89764 1.00842 6.6248 1.0001 7.81663C0.994554 8.60778 1.21748 9.1931 1.46775 9.59799C1.59412 9.81492 1.91731 9.61533 1.77987 9.40524C1.56226 9.05319 1.35827 8.5412 1.36705 7.81663C1.38065 6.69285 2.11627 6.10536 2.87892 5.62608C3.64278 5.14604 4.519 4.77284 5.03655 4.09711C5.5541 4.77284 6.37939 5.09748 7.19417 5.62608C8.02484 6.16497 8.72432 6.74912 8.70605 7.81663C8.69107 8.69017 8.43337 9.47668 7.73564 10.0175H1.54981C1.24804 10.0175 1.0001 10.2672 1.0001 10.5689V11.3013C0.999734 11.4026 1.08153 11.485 1.18286 11.4854H8.88953C8.99141 11.4858 9.07411 11.4031 9.07372 11.3013V10.5689C9.07372 10.2672 8.82434 10.0175 8.52258 10.0175H8.28463C8.9377 9.29201 9.08083 8.44969 9.07301 7.81663C9.05733 6.54991 8.26473 5.86552 7.38876 5.31509C6.53823 4.78065 5.62681 4.35872 5.22038 3.72648V3.41333C5.88388 3.41264 6.46278 2.9699 6.63443 2.33239C6.7083 2.11357 6.48306 1.99139 6.35134 2.10524C6.18758 2.23942 5.98218 2.31389 5.77045 2.31411C5.26162 2.31411 4.85344 1.90459 4.85344 1.39586C4.85358 1.1842 4.92646 0.979909 5.06056 0.816141C5.16254 0.695233 5.07395 0.510589 4.91579 0.514464ZM4.5216 1.10133C4.499 1.19732 4.48617 1.29592 4.4861 1.39586C4.4861 2.10286 5.06328 2.681 5.77043 2.681C5.87078 2.68089 5.96972 2.66777 6.06606 2.64482C5.86253 2.89165 5.55774 3.04605 5.22036 3.04645C4.6102 3.04645 4.11916 2.55693 4.11915 1.94689C4.11952 1.60947 4.27448 1.30484 4.52157 1.10133H4.5216ZM1.54981 10.3844H8.52258C8.6274 10.3844 8.70677 10.4641 8.70677 10.5689V11.1185H1.36705V10.5689C1.36705 10.4641 1.445 10.3844 1.54981 10.3844Z" fill="#828282"/>
<path d="M4.91579 0.514464C4.12143 0.67279 3.75223 1.38594 3.75223 1.94689C3.75223 2.62837 4.22179 3.20138 4.85344 3.36496V3.7254C4.44736 4.35824 3.54181 4.79075 2.68434 5.31509C1.73168 5.89764 1.00842 6.6248 1.0001 7.81663C0.994554 8.60778 1.21748 9.1931 1.46775 9.59799C1.59412 9.81492 1.91731 9.61533 1.77987 9.40524C1.56226 9.05319 1.35827 8.5412 1.36705 7.81663C1.38065 6.69285 2.11627 6.10536 2.87892 5.62608C3.64278 5.14604 4.519 4.77284 5.03655 4.09711C5.5541 4.77284 6.37939 5.09748 7.19417 5.62608C8.02484 6.16497 8.72432 6.74912 8.70605 7.81663C8.69107 8.69017 8.43337 9.47668 7.73564 10.0175H1.54981C1.24804 10.0175 1.0001 10.2672 1.0001 10.5689V11.3013C0.999734 11.4026 1.08153 11.485 1.18286 11.4854H8.88953C8.99141 11.4858 9.07411 11.4031 9.07372 11.3013V10.5689C9.07372 10.2672 8.82434 10.0175 8.52258 10.0175H8.28463C8.9377 9.29201 9.08083 8.44969 9.07301 7.81663C9.05733 6.54991 8.26473 5.86552 7.38876 5.31509C6.53823 4.78065 5.62681 4.35872 5.22038 3.72648V3.41333C5.88388 3.41264 6.46278 2.9699 6.63443 2.33239C6.7083 2.11357 6.48306 1.99139 6.35134 2.10524C6.18758 2.23942 5.98218 2.31389 5.77045 2.31411C5.26162 2.31411 4.85344 1.90459 4.85344 1.39586C4.85358 1.1842 4.92646 0.979909 5.06056 0.816141C5.16254 0.695233 5.07395 0.510589 4.91579 0.514464ZM4.5216 1.10133C4.499 1.19732 4.48617 1.29592 4.4861 1.39586C4.4861 2.10286 5.06328 2.681 5.77043 2.681C5.87078 2.68089 5.96972 2.66777 6.06606 2.64482C5.86253 2.89165 5.55774 3.04605 5.22036 3.04645C4.6102 3.04645 4.11916 2.55693 4.11915 1.94689C4.11952 1.60947 4.27448 1.30484 4.52157 1.10133H4.5216ZM1.54981 10.3844H8.52258C8.6274 10.3844 8.70677 10.4641 8.70677 10.5689V11.1185H1.36705V10.5689C1.36705 10.4641 1.445 10.3844 1.54981 10.3844Z" stroke="#828282" stroke-width="0.6" mask="url(#path-3-outside-1_0_1)"/>
</g>
<defs>
<filter id="filter0_d_0_1" x="-67" y="-41" width="370" height="75" filterUnits="userSpaceOnUse" color-interpolation-filters="sRGB">
<feFlood flood-opacity="0" result="BackgroundImageFix"/>
<feColorMatrix in="SourceAlpha" type="matrix" values="0 0 0 0 0 0 0 0 0 0 0 0 0 0 0 0 0 0 127 0" result="hardAlpha"/>
<feMorphology radius="1" operator="dilate" in="SourceAlpha" result="effect1_dropShadow_0_1"/>
<feOffset/>
<feGaussianBlur stdDeviation="2"/>
<feComposite in2="hardAlpha" operator="out"/>
<feColorMatrix type="matrix" values="0 0 0 0 0 0 0 0 0 0 0 0 0 0 0 0 0 0 0.25 0"/>
<feBlend mode="normal" in2="BackgroundImageFix" result="effect1_dropShadow_0_1"/>
<feBlend mode="normal" in="SourceGraphic" in2="effect1_dropShadow_0_1" result="shape"/>
</filter>
</defs>
</svg>
