<svg width="13" height="15" viewBox="0 0 13 15" fill="none" xmlns="http://www.w3.org/2000/svg">
<path d="M1 1.69552V13.6955C0.999965 13.829 1.03339 13.96 1.09684 14.0751C1.16028 14.1902 1.25144 14.2853 1.36091 14.3504C1.47038 14.4155 1.5942 14.4484 1.71959 14.4456C1.84498 14.4428 1.9674 14.4044 2.07422 14.3345L11.2375 8.33452C11.3401 8.26742 11.4249 8.17345 11.4837 8.06159C11.5425 7.94972 11.5734 7.82369 11.5734 7.69552C11.5734 7.56735 11.5425 7.44132 11.4837 7.32946C11.4249 7.21759 11.3401 7.12363 11.2375 7.05652L2.07422 1.05652C1.9674 0.986597 1.84498 0.948263 1.71959 0.945476C1.5942 0.942689 1.47038 0.97555 1.36091 1.04067C1.25144 1.10579 1.16028 1.20081 1.09684 1.31592C1.03339 1.43104 0.999965 1.56208 1 1.69552Z" stroke="#1B93B0" stroke-linecap="round" stroke-linejoin="round"/>
</svg>
