<svg width="18" height="15" viewBox="0 0 18 15" fill="none" xmlns="http://www.w3.org/2000/svg">
<path fill-rule="evenodd" clip-rule="evenodd" d="M1.5563 0.583557V11.4792H6.27385C6.97905 11.4792 7.56266 11.5796 8.02469 11.8055C8.19491 11.8808 8.36513 11.9813 8.51104 12.0817V1.61287C8.29218 1.26139 8.04901 1.01034 7.70857 0.834608C7.34381 0.658872 6.85746 0.583557 6.27385 0.583557H1.5563V0.583557ZM6.27385 12.2323H1.19155C0.997007 12.2323 0.826786 12.0817 0.826786 11.8557V2.19028H0L0 13.111H5.56865C6.83315 13.111 7.48971 13.2867 8.04901 14.4165H9.67826C10.2376 13.2867 10.9184 13.111 12.1586 13.111H17.7273V2.19028H16.9005V11.8557C16.9005 12.0817 16.7303 12.2323 16.5357 12.2323H11.4534C10.4321 12.2323 9.65395 12.3829 9.19192 13.3369C9.07033 13.6382 8.65694 13.6382 8.53535 13.3118C8.12196 12.4081 7.24654 12.2323 6.27385 12.2323ZM9.24055 1.61287V12.0817C9.82417 11.6047 10.6023 11.4792 11.4534 11.4792H16.171V0.583557H11.4534C10.8698 0.583557 10.3835 0.658872 10.0187 0.834608C9.67826 1.01034 9.43509 1.26139 9.24055 1.61287Z" fill="#B2B2B2"/>
</svg>
