<svg width="11" height="15" viewBox="0 0 11 15" fill="none" xmlns="http://www.w3.org/2000/svg">
<mask id="path-1-inside-1_174_2630" fill="white">
<path d="M0.263306 2.69531C0.263306 2.23118 0.44768 1.78606 0.775869 1.45788C1.10406 1.12969 1.54918 0.945313 2.01331 0.945313L9.01331 0.945312C9.47743 0.945313 9.92255 1.12969 10.2507 1.45788C10.5789 1.78606 10.7633 2.23118 10.7633 2.69531V14.5078C10.7633 14.5869 10.7418 14.6646 10.7011 14.7325C10.6604 14.8004 10.6021 14.8559 10.5323 14.8933C10.4625 14.9306 10.3839 14.9484 10.3049 14.9446C10.2259 14.9408 10.1493 14.9157 10.0834 14.8718L5.51331 12.4087L0.943181 14.8718C0.877298 14.9157 0.800757 14.9408 0.721711 14.9446C0.642664 14.9484 0.564072 14.9306 0.494305 14.8933C0.424538 14.8559 0.366209 14.8004 0.32553 14.7325C0.284852 14.6646 0.263347 14.5869 0.263306 14.5078V2.69531ZM2.01331 1.82031C1.78124 1.82031 1.55868 1.9125 1.39459 2.07659C1.23049 2.24069 1.13831 2.46325 1.13831 2.69531V13.6906L5.27093 11.5188C5.34273 11.471 5.42706 11.4455 5.51331 11.4455C5.59955 11.4455 5.68388 11.471 5.75568 11.5188L9.88831 13.6906V2.69531C9.88831 2.46325 9.79612 2.24069 9.63202 2.07659C9.46793 1.9125 9.24537 1.82031 9.01331 1.82031H2.01331Z"/>
</mask>
<path d="M0.263306 2.69531C0.263306 2.23118 0.44768 1.78606 0.775869 1.45788C1.10406 1.12969 1.54918 0.945313 2.01331 0.945313L9.01331 0.945312C9.47743 0.945313 9.92255 1.12969 10.2507 1.45788C10.5789 1.78606 10.7633 2.23118 10.7633 2.69531V14.5078C10.7633 14.5869 10.7418 14.6646 10.7011 14.7325C10.6604 14.8004 10.6021 14.8559 10.5323 14.8933C10.4625 14.9306 10.3839 14.9484 10.3049 14.9446C10.2259 14.9408 10.1493 14.9157 10.0834 14.8718L5.51331 12.4087L0.943181 14.8718C0.877298 14.9157 0.800757 14.9408 0.721711 14.9446C0.642664 14.9484 0.564072 14.9306 0.494305 14.8933C0.424538 14.8559 0.366209 14.8004 0.32553 14.7325C0.284852 14.6646 0.263347 14.5869 0.263306 14.5078V2.69531ZM2.01331 1.82031C1.78124 1.82031 1.55868 1.9125 1.39459 2.07659C1.23049 2.24069 1.13831 2.46325 1.13831 2.69531V13.6906L5.27093 11.5188C5.34273 11.471 5.42706 11.4455 5.51331 11.4455C5.59955 11.4455 5.68388 11.471 5.75568 11.5188L9.88831 13.6906V2.69531C9.88831 2.46325 9.79612 2.24069 9.63202 2.07659C9.46793 1.9125 9.24537 1.82031 9.01331 1.82031H2.01331Z" fill="#1B93B0"/>
<path d="M2.01331 0.945313L2.01331 -0.0546875L2.01331 0.945313ZM10.7633 14.5078L11.7633 14.5083V14.5078H10.7633ZM10.0834 14.8718L10.6374 14.0393L10.5988 14.0136L10.5579 13.9915L10.0834 14.8718ZM5.51331 12.4087L5.98775 11.5284L5.51331 11.2727L5.03886 11.5284L5.51331 12.4087ZM0.943181 14.8718L0.468739 13.9915L0.42785 14.0136L0.38918 14.0393L0.943181 14.8718ZM0.263306 14.5078L-0.736694 14.5078L-0.736694 14.5083L0.263306 14.5078ZM2.01331 1.82031L2.01331 0.820312L2.01331 1.82031ZM1.13831 2.69531H0.138306H1.13831ZM1.13831 13.6906H0.138306V15.3458L1.6035 14.5758L1.13831 13.6906ZM5.27093 11.5188L5.73612 12.404L5.78189 12.38L5.82493 12.3513L5.27093 11.5188ZM5.51331 11.4455L5.51331 12.4455L5.51331 11.4455ZM5.75568 11.5188L5.20168 12.3513L5.24472 12.38L5.29049 12.404L5.75568 11.5188ZM9.88831 13.6906L9.42312 14.5758L10.8883 15.3458V13.6906H9.88831ZM9.01331 1.82031V0.820312V1.82031ZM1.26331 2.69531C1.26331 2.4964 1.34232 2.30563 1.48298 2.16498L0.0687619 0.750769C-0.446963 1.26649 -0.736694 1.96597 -0.736694 2.69531L1.26331 2.69531ZM1.48298 2.16498C1.62363 2.02433 1.81439 1.94531 2.01331 1.94531L2.01331 -0.0546875C1.28396 -0.0546875 0.584487 0.235044 0.0687619 0.750769L1.48298 2.16498ZM2.01331 1.94531H9.01331V-0.0546875L2.01331 -0.0546875V1.94531ZM9.01331 1.94531C9.21222 1.94531 9.40298 2.02433 9.54364 2.16498L10.9578 0.750769C10.4421 0.235044 9.74265 -0.0546875 9.01331 -0.0546875V1.94531ZM9.54364 2.16498C9.68429 2.30564 9.76331 2.4964 9.76331 2.69531H11.7633C11.7633 1.96597 11.4736 1.26649 10.9578 0.750769L9.54364 2.16498ZM9.76331 2.69531V14.5078H11.7633V2.69531H9.76331ZM9.76331 14.5073C9.76336 14.4056 9.79101 14.3057 9.84331 14.2184L11.5589 15.2465C11.6925 15.0235 11.7632 14.7683 11.7633 14.5083L9.76331 14.5073ZM9.84331 14.2184C9.89561 14.1312 9.97061 14.0597 10.0603 14.0117L11.0043 15.7749C11.2335 15.6522 11.4252 15.4695 11.5589 15.2465L9.84331 14.2184ZM10.0603 14.0117C10.15 13.9637 10.2511 13.9409 10.3527 13.9457L10.2571 15.9434C10.5168 15.9559 10.7751 15.8976 11.0043 15.7749L10.0603 14.0117ZM10.3527 13.9457C10.4543 13.9506 10.5527 13.9829 10.6374 14.0393L9.52943 15.7043C9.74591 15.8484 9.9974 15.931 10.2571 15.9434L10.3527 13.9457ZM10.5579 13.9915L5.98775 11.5284L5.03886 13.289L9.60899 15.7521L10.5579 13.9915ZM5.03886 11.5284L0.468739 13.9915L1.41762 15.7521L5.98775 13.289L5.03886 11.5284ZM0.38918 14.0393C0.473891 13.9829 0.572301 13.9506 0.673928 13.9457L0.769494 15.9434C1.02921 15.931 1.2807 15.8484 1.49718 15.7043L0.38918 14.0393ZM0.673928 13.9457C0.77556 13.9409 0.876607 13.9637 0.966306 14.0117L0.0223042 15.7749C0.251538 15.8976 0.509768 15.9559 0.769494 15.9434L0.673928 13.9457ZM0.966306 14.0117C1.05601 14.0597 1.131 14.1312 1.1833 14.2184L-0.532241 15.2465C-0.398582 15.4695 -0.206929 15.6522 0.0223042 15.7749L0.966306 14.0117ZM1.1833 14.2184C1.2356 14.3057 1.26325 14.4055 1.26331 14.5073L-0.736694 14.5083C-0.73656 14.7684 -0.6659 15.0235 -0.532241 15.2465L1.1833 14.2184ZM1.26331 14.5078V2.69531H-0.736694V14.5078H1.26331ZM2.01331 0.820312C1.51602 0.820313 1.03911 1.01786 0.68748 1.36949L2.10169 2.7837C2.07825 2.80714 2.04646 2.82031 2.01331 2.82031L2.01331 0.820312ZM0.68748 1.36949C0.33585 1.72112 0.138306 2.19803 0.138306 2.69531L2.13831 2.69531C2.13831 2.72846 2.12514 2.76026 2.10169 2.7837L0.68748 1.36949ZM0.138306 2.69531V13.6906H2.13831V2.69531H0.138306ZM1.6035 14.5758L5.73612 12.404L4.80574 10.6336L0.673115 12.8054L1.6035 14.5758ZM5.82493 12.3513C5.73261 12.4128 5.62419 12.4455 5.51331 12.4455V10.4455C5.22992 10.4455 4.95286 10.5293 4.71693 10.6863L5.82493 12.3513ZM5.51331 12.4455C5.40242 12.4455 5.294 12.4128 5.20168 12.3513L6.30968 10.6863C6.07375 10.5293 5.79669 10.4455 5.51331 10.4455L5.51331 12.4455ZM5.29049 12.404L9.42312 14.5758L10.3535 12.8054L6.22087 10.6336L5.29049 12.404ZM10.8883 13.6906V2.69531H8.88831V13.6906H10.8883ZM10.8883 2.69531C10.8883 2.19803 10.6908 1.72112 10.3391 1.36949L8.92492 2.7837C8.90148 2.76026 8.88831 2.72847 8.88831 2.69531H10.8883ZM10.3391 1.36949C9.9875 1.01786 9.51059 0.820313 9.01331 0.820312L9.01331 2.82031C8.98015 2.82031 8.94836 2.80714 8.92492 2.7837L10.3391 1.36949ZM9.01331 0.820312H2.01331V2.82031H9.01331V0.820312Z" fill="#1B93B0" mask="url(#path-1-inside-1_174_2630)"/>
</svg>
