<svg width="14" height="17" viewBox="0 0 14 17" fill="none" xmlns="http://www.w3.org/2000/svg">
<path d="M9.99318 0.924255C12.3333 0.924255 13.6364 2.27274 13.6364 4.58335V12.4091C13.6364 14.7576 12.3333 16.0758 9.99318 16.0758H3.64394C1.34091 16.0758 0 14.7576 0 12.4091L0 4.58335C0 2.27274 1.34091 0.924255 3.64394 0.924255H9.99318ZM3.84848 11.3333C3.62121 11.3106 3.40152 11.4167 3.2803 11.6136C3.15909 11.803 3.15909 12.053 3.2803 12.25C3.40152 12.4394 3.62121 12.553 3.84848 12.5227H9.78788C10.0902 12.4924 10.3182 12.2341 10.3182 11.9318C10.3182 11.6212 10.0902 11.3636 9.78788 11.3333H3.84848ZM9.78788 7.87804H3.84848C3.52197 7.87804 3.25758 8.14395 3.25758 8.46971C3.25758 8.79547 3.52197 9.06062 3.84848 9.06062H9.78788C10.1136 9.06062 10.3788 8.79547 10.3788 8.46971C10.3788 8.14395 10.1136 7.87804 9.78788 7.87804ZM6.11288 4.44698H3.84848V4.45456C3.52197 4.45456 3.25758 4.71971 3.25758 5.04547C3.25758 5.37123 3.52197 5.63638 3.84848 5.63638H6.11288C6.43939 5.63638 6.70455 5.37123 6.70455 5.03713C6.70455 4.71213 6.43939 4.44698 6.11288 4.44698Z" fill="#B1B1B1"/>
</svg>
